<?xml version="1.0" encoding="UTF-8"?>
<!DOCTYPE svg PUBLIC "-//W3C//DTD SVG 1.1//EN" "http://www.w3.org/Graphics/SVG/1.1/DTD/svg11.dtd">
<svg xmlns="http://www.w3.org/2000/svg" version="1.1" width="512px" height="512px" style="shape-rendering:geometricPrecision; text-rendering:geometricPrecision; image-rendering:optimizeQuality; fill-rule:evenodd; clip-rule:evenodd" xmlns:xlink="http://www.w3.org/1999/xlink">
<g><path style="opacity:0.994" fill="#fefffe" d="M 239.5,27.5 C 325.244,24.7921 393.411,57.7921 444,126.5C 487.313,194.26 494.98,265.927 467,341.5C 436.761,409.743 385.927,454.576 314.5,476C 212.468,497.54 129.968,467.04 67,384.5C 23.6871,316.74 16.0205,245.073 44,169.5C 82.394,85.2683 147.561,37.935 239.5,27.5 Z M 248.5,135.5 C 268.868,133.71 280.535,142.877 283.5,163C 280.663,183.268 268.996,192.268 248.5,190C 230.433,183.03 224.266,170.196 230,151.5C 234.217,143.774 240.384,138.441 248.5,135.5 Z M 250.5,213.5 C 263.283,212.136 271.783,217.469 276,229.5C 276.667,275.833 276.667,322.167 276,368.5C 271.573,380.97 262.739,386.137 249.5,384C 241.601,381.702 236.768,376.536 235,368.5C 234.333,322.167 234.333,275.833 235,229.5C 237.685,221.65 242.852,216.316 250.5,213.5 Z"/></g>
</svg>
