<?xml version="1.0" encoding="UTF-8"?>
<!DOCTYPE svg PUBLIC "-//W3C//DTD SVG 1.1//EN" "http://www.w3.org/Graphics/SVG/1.1/DTD/svg11.dtd">
<svg xmlns="http://www.w3.org/2000/svg" version="1.1" width="500px" height="500px" style="shape-rendering:geometricPrecision; text-rendering:geometricPrecision; image-rendering:optimizeQuality; fill-rule:evenodd; clip-rule:evenodd" xmlns:xlink="http://www.w3.org/1999/xlink">
<g><path style="opacity:1" fill="#d2d7db" d="M 131.5,13.5 C 235.001,13.1672 338.335,13.5005 441.5,14.5C 426.5,14.5 411.5,14.5 396.5,14.5C 374.167,14.5 351.833,14.5 329.5,14.5C 304.164,14.3334 278.831,14.5 253.5,15C 252.956,15.7172 252.289,16.2172 251.5,16.5C 229.673,15.5026 207.673,15.1693 185.5,15.5C 168.341,14.5033 151.008,14.17 133.5,14.5C 133.167,14.5 132.833,14.5 132.5,14.5C 131.833,14.5 131.5,14.1667 131.5,13.5 Z"/></g>
<g><path style="opacity:1" fill="#a4a5a6" d="M 329.5,15.5 C 329.5,15.1667 329.5,14.8333 329.5,14.5C 351.833,14.5 374.167,14.5 396.5,14.5C 396.672,15.4916 396.338,16.1583 395.5,16.5C 373.673,15.5026 351.673,15.1693 329.5,15.5 Z"/></g>
<g><path style="opacity:1" fill="#624b01" d="M 132.5,14.5 C 132.833,14.5 133.167,14.5 133.5,14.5C 133.171,29.0097 133.504,43.3431 134.5,57.5C 134.5,58.1667 134.167,58.5 133.5,58.5C 132.504,44.0095 132.171,29.3428 132.5,14.5 Z"/></g>
<g><path style="opacity:1" fill="#1f191c" d="M 133.5,14.5 C 151.008,14.17 168.341,14.5033 185.5,15.5C 168.5,29.5 151.5,43.5 134.5,57.5C 133.504,43.3431 133.171,29.0097 133.5,14.5 Z"/></g>
<g><path style="opacity:1" fill="#fcfcfc" d="M 185.5,15.5 C 207.673,15.1693 229.673,15.5026 251.5,16.5C 227.315,37.5125 202.649,58.0125 177.5,78C 172.633,81.7379 168.3,85.9045 164.5,90.5C 154.167,90.5 143.833,90.5 133.5,90.5C 133.5,79.8333 133.5,69.1667 133.5,58.5C 134.167,58.5 134.5,58.1667 134.5,57.5C 151.5,43.5 168.5,29.5 185.5,15.5 Z"/></g>
<g><path style="opacity:1" fill="#fdfdfd" d="M 329.5,15.5 C 351.673,15.1693 373.673,15.5026 395.5,16.5C 366.182,40.4868 337.182,64.8201 308.5,89.5C 286.141,90.1559 264.141,89.4892 242.5,87.5C 271.5,63.5 300.5,39.5 329.5,15.5 Z"/></g>
<g><path style="opacity:1" fill="#fccb1b" d="M 15.5,70.5 C 17.9904,59.1792 23.3238,49.5125 31.5,41.5C 35.4628,37.034 40.1295,33.534 45.5,31C 46.3862,29.3853 47.3862,27.8853 48.5,26.5C 56.3517,23.403 64.0183,20.0697 71.5,16.5C 91.3925,15.2624 111.226,15.2624 131,16.5C 131.5,65.8322 131.667,115.166 131.5,164.5C 92.1667,164.5 52.8333,164.5 13.5,164.5C 13.3334,136.831 13.5,109.165 14,81.5C 15.2367,77.9399 15.7367,74.2733 15.5,70.5 Z"/></g>
<g><path style="opacity:1" fill="#656163" d="M 441.5,14.5 C 444.829,14.2153 447.829,14.8819 450.5,16.5C 448.856,16.2865 447.356,16.6198 446,17.5C 444.69,16.1031 443.19,15.1031 441.5,14.5 Z"/></g>
<g><path style="opacity:1" fill="#f0d365" d="M 71.5,16.5 C 64.0183,20.0697 56.3517,23.403 48.5,26.5C 55.2763,21.2823 62.943,17.9489 71.5,16.5 Z"/></g>
<g><path style="opacity:0.988" fill="#fcfcfc" d="M 463.5,24.5 C 467.054,33.2752 471.887,41.2752 478,48.5C 480.604,54.1544 483.104,59.8211 485.5,65.5C 485.167,65.5 484.833,65.5 484.5,65.5C 473.5,73.5 462.5,81.5 451.5,89.5C 429.474,90.1557 407.808,89.489 386.5,87.5C 411.871,66.1285 437.537,45.1285 463.5,24.5 Z"/></g>
<g><path style="opacity:1" fill="#efd25d" d="M 48.5,26.5 C 47.3862,27.8853 46.3862,29.3853 45.5,31C 40.1295,33.534 35.4628,37.034 31.5,41.5C 32.8823,38.6057 34.8823,36.1057 37.5,34C 40.8777,30.9854 44.5444,28.4854 48.5,26.5 Z"/></g>
<g><path style="opacity:1" fill="#feeca4" d="M 75.5,55.5 C 78.7131,55.19 81.7131,55.5233 84.5,56.5C 79.962,56.7024 75.6287,57.7024 71.5,59.5C 72.3696,57.7263 73.703,56.393 75.5,55.5 Z"/></g>
<g><path style="opacity:1" fill="#fdfdfa" d="M 84.5,56.5 C 86.153,56.6596 87.4863,57.3263 88.5,58.5C 96.0614,66.4761 96.3947,74.8094 89.5,83.5C 83.8333,84.8333 78.1667,84.8333 72.5,83.5C 68.8973,81.5647 66.8973,78.5647 66.5,74.5C 66.184,68.8074 67.8507,63.8074 71.5,59.5C 75.6287,57.7024 79.962,56.7024 84.5,56.5 Z"/></g>
<g><path style="opacity:1" fill="#fff0ae" d="M 71.5,59.5 C 67.8507,63.8074 66.184,68.8074 66.5,74.5C 64.0951,68.1383 65.7617,63.1383 71.5,59.5 Z"/></g>
<g><path style="opacity:1" fill="#fff9cd" d="M 88.5,58.5 C 90.2292,59.1175 91.7292,60.1175 93,61.5C 96.3276,68.13 96.3276,74.7966 93,81.5C 92.1841,82.8228 91.0174,83.4894 89.5,83.5C 96.3947,74.8094 96.0614,66.4761 88.5,58.5 Z"/></g>
<g><path style="opacity:1" fill="#f3cf42" d="M 75.5,55.5 C 81.0371,54.3415 86.7038,54.5082 92.5,56C 97.5588,63.6372 98.5588,71.8039 95.5,80.5C 92.5913,84.7544 88.5913,86.7544 83.5,86.5C 85.7512,85.9851 87.7512,84.9851 89.5,83.5C 91.0174,83.4894 92.1841,82.8228 93,81.5C 96.3276,74.7966 96.3276,68.13 93,61.5C 91.7292,60.1175 90.2292,59.1175 88.5,58.5C 87.4863,57.3263 86.153,56.6596 84.5,56.5C 81.7131,55.5233 78.7131,55.19 75.5,55.5 Z"/></g>
<g><path style="opacity:1" fill="#1e191a" d="M 484.5,65.5 C 484.83,83.6744 484.497,101.674 483.5,119.5C 473.253,109.375 462.586,99.7087 451.5,90.5C 451.5,90.1667 451.5,89.8333 451.5,89.5C 462.5,81.5 473.5,73.5 484.5,65.5 Z"/></g>
<g><path style="opacity:1" fill="#aeaeae" d="M 242.5,87.5 C 264.141,89.4892 286.141,90.1559 308.5,89.5C 308.5,89.8333 308.5,90.1667 308.5,90.5C 286.327,90.1693 264.327,90.5026 242.5,91.5C 239.833,90.1667 239.833,88.8333 242.5,87.5 Z"/></g>
<g><path style="opacity:1" fill="#c2c2c2" d="M 386.5,87.5 C 407.808,89.489 429.474,90.1557 451.5,89.5C 451.5,89.8333 451.5,90.1667 451.5,90.5C 429.327,90.1693 407.327,90.5026 385.5,91.5C 383.198,90.0013 383.531,88.668 386.5,87.5 Z"/></g>
<g><path style="opacity:1" fill="#fdfdfd" d="M 133.5,90.5 C 143.833,90.5 154.167,90.5 164.5,90.5C 194.54,115.51 224.54,140.51 254.5,165.5C 232.167,165.5 209.833,165.5 187.5,165.5C 186.833,165.167 186.167,164.833 185.5,164.5C 168.355,150.415 151.355,136.081 134.5,121.5C 134.5,120.833 134.167,120.5 133.5,120.5C 133.5,110.5 133.5,100.5 133.5,90.5 Z"/></g>
<g><path style="opacity:1" fill="#fcfcfc" d="M 308.5,90.5 C 338.167,115.167 367.833,139.833 397.5,164.5C 374.931,165.826 352.264,165.826 329.5,164.5C 300.182,140.513 271.182,116.18 242.5,91.5C 264.327,90.5026 286.327,90.1693 308.5,90.5 Z"/></g>
<g><path style="opacity:1" fill="#f8fbfc" d="M 385.5,91.5 C 407.327,90.5026 429.327,90.1693 451.5,90.5C 462.586,99.7087 473.253,109.375 483.5,119.5C 483.409,121.698 484.075,122.031 485.5,120.5C 485.833,217.668 485.499,314.668 484.5,411.5C 484.5,329.5 484.5,247.5 484.5,165.5C 480.4,165.763 476.4,165.43 472.5,164.5C 443.818,139.82 414.818,115.487 385.5,91.5 Z"/></g>
<g><path style="opacity:1" fill="#1f191b" d="M 329.5,14.5 C 329.5,14.8333 329.5,15.1667 329.5,15.5C 300.5,39.5 271.5,63.5 242.5,87.5C 239.833,88.8333 239.833,90.1667 242.5,91.5C 271.182,116.18 300.182,140.513 329.5,164.5C 304.672,165.498 279.672,165.831 254.5,165.5C 224.54,140.51 194.54,115.51 164.5,90.5C 168.3,85.9045 172.633,81.7379 177.5,78C 202.649,58.0125 227.315,37.5125 251.5,16.5C 252.289,16.2172 252.956,15.7172 253.5,15C 278.831,14.5 304.164,14.3334 329.5,14.5 Z"/></g>
<g><path style="opacity:1" fill="#1f191b" d="M 396.5,14.5 C 411.5,14.5 426.5,14.5 441.5,14.5C 443.19,15.1031 444.69,16.1031 446,17.5C 447.356,16.6198 448.856,16.2865 450.5,16.5C 455.796,17.3146 460.463,19.4813 464.5,23C 463.944,23.3826 463.611,23.8826 463.5,24.5C 437.537,45.1285 411.871,66.1285 386.5,87.5C 383.531,88.668 383.198,90.0013 385.5,91.5C 414.818,115.487 443.818,139.82 472.5,164.5C 448.006,165.498 423.339,165.831 398.5,165.5C 398.5,164.833 398.167,164.5 397.5,164.5C 367.833,139.833 338.167,115.167 308.5,90.5C 308.5,90.1667 308.5,89.8333 308.5,89.5C 337.182,64.8201 366.182,40.4868 395.5,16.5C 396.338,16.1583 396.672,15.4916 396.5,14.5 Z"/></g>
<g><path style="opacity:0.119" fill="#c1bfc1" d="M 484.5,65.5 C 484.833,65.5 485.167,65.5 485.5,65.5C 485.5,83.8333 485.5,102.167 485.5,120.5C 484.075,122.031 483.409,121.698 483.5,119.5C 484.497,101.674 484.83,83.6744 484.5,65.5 Z"/></g>
<g><path style="opacity:1" fill="#624b02" d="M 133.5,120.5 C 134.167,120.5 134.5,120.833 134.5,121.5C 133.504,135.99 133.171,150.657 133.5,165.5C 133.167,165.5 132.833,165.5 132.5,165.5C 132.171,150.324 132.504,135.324 133.5,120.5 Z"/></g>
<g><path style="opacity:1" fill="#1f191b" d="M 134.5,121.5 C 151.355,136.081 168.355,150.415 185.5,164.5C 168.341,165.497 151.008,165.83 133.5,165.5C 133.171,150.657 133.504,135.99 134.5,121.5 Z"/></g>
<g><path style="opacity:1" fill="#ecd764" d="M 131.5,13.5 C 131.5,14.1667 131.833,14.5 132.5,14.5C 132.171,29.3428 132.504,44.0095 133.5,58.5C 133.5,69.1667 133.5,79.8333 133.5,90.5C 133.5,100.5 133.5,110.5 133.5,120.5C 132.504,135.324 132.171,150.324 132.5,165.5C 92.1667,165.5 51.8333,165.5 11.5,165.5C 11.3334,139.498 11.5,113.498 12,87.5C 12.1193,81.4858 13.286,75.8191 15.5,70.5C 15.7367,74.2733 15.2367,77.9399 14,81.5C 13.5,109.165 13.3334,136.831 13.5,164.5C 52.8333,164.5 92.1667,164.5 131.5,164.5C 131.667,115.166 131.5,65.8322 131,16.5C 111.226,15.2624 91.3925,15.2624 71.5,16.5C 75.2335,15.0227 79.2335,14.1894 83.5,14C 99.4965,13.5001 115.497,13.3334 131.5,13.5 Z"/></g>
<g><path style="opacity:1" fill="#fce892" d="M 69.5,139.5 C 72.0245,141.177 74.6912,142.677 77.5,144C 80.8492,144.388 84.1825,144.221 87.5,143.5C 80.3764,147.154 74.3764,145.821 69.5,139.5 Z"/></g>
<g><path style="opacity:1" fill="#f6d24f" d="M 87.5,116.5 C 87.5,116.167 87.5,115.833 87.5,115.5C 88.8734,115.343 90.2068,115.51 91.5,116C 96.0387,121.28 98.2054,127.447 98,134.5C 96.2873,136.507 94.6207,138.507 93,140.5C 91.7365,142.607 89.9032,143.607 87.5,143.5C 95.1412,138.552 97.6412,131.552 95,122.5C 92.965,119.902 90.465,117.902 87.5,116.5 Z"/></g>
<g><path style="opacity:1" fill="#fde899" d="M 73.5,116.5 C 71.4935,118.839 69.4935,121.172 67.5,123.5C 66.673,126.783 66.3396,130.116 66.5,133.5C 63.5618,125.646 65.8951,119.979 73.5,116.5 Z"/></g>
<g><path style="opacity:1" fill="#fdfdf8" d="M 73.5,116.5 C 78.1667,116.5 82.8333,116.5 87.5,116.5C 90.465,117.902 92.965,119.902 95,122.5C 97.6412,131.552 95.1412,138.552 87.5,143.5C 84.1825,144.221 80.8492,144.388 77.5,144C 74.6912,142.677 72.0245,141.177 69.5,139.5C 67.9752,137.784 66.9752,135.784 66.5,133.5C 66.3396,130.116 66.673,126.783 67.5,123.5C 69.4935,121.172 71.4935,118.839 73.5,116.5 Z"/></g>
<g><path style="opacity:1" fill="#fffbca" d="M 87.5,115.5 C 87.5,115.833 87.5,116.167 87.5,116.5C 82.8333,116.5 78.1667,116.5 73.5,116.5C 75.4621,114.983 77.7954,114.316 80.5,114.5C 82.8834,114.637 85.2168,114.971 87.5,115.5 Z"/></g>
<g><path style="opacity:1" fill="#fff8c2" d="M 72.5,83.5 C 78.1667,84.8333 83.8333,84.8333 89.5,83.5C 87.7512,84.9851 85.7512,85.9851 83.5,86.5C 80.0901,86.5429 76.7568,86.0429 73.5,85C 72.944,84.6174 72.6107,84.1174 72.5,83.5 Z"/></g>
<g><path style="opacity:1" fill="#2a618a" d="M 329.5,164.5 C 352.264,165.826 374.931,165.826 397.5,164.5C 398.167,164.5 398.5,164.833 398.5,165.5C 398.5,165.833 398.5,166.167 398.5,166.5C 327.998,166.833 257.665,166.499 187.5,165.5C 209.833,165.5 232.167,165.5 254.5,165.5C 279.672,165.831 304.672,165.498 329.5,164.5 Z"/></g>
<g><path style="opacity:1" fill="#015391" d="M 185.5,164.5 C 186.167,164.833 186.833,165.167 187.5,165.5C 257.665,166.499 327.998,166.833 398.5,166.5C 426.859,166.2 455.192,166.533 483.5,167.5C 483.5,170.167 483.5,172.833 483.5,175.5C 482.809,260.009 482.142,344.676 481.5,429.5C 481.5,429.833 481.5,430.167 481.5,430.5C 480.15,431.483 479.15,432.816 478.5,434.5C 477.749,433.624 477.249,432.624 477,431.5C 477.39,434.731 477.224,438.065 476.5,441.5C 475.5,441.5 474.5,441.5 473.5,441.5C 473.007,443.806 472.674,446.139 472.5,448.5C 468.516,448.472 467.516,450.139 469.5,453.5C 466.5,453.833 464.833,455.5 464.5,458.5C 463.127,458.343 461.793,458.51 460.5,459C 461.602,461.391 460.936,461.891 458.5,460.5C 457.526,462.743 457.192,465.076 457.5,467.5C 453.016,471.578 448.016,474.911 442.5,477.5C 440.847,477.66 439.514,478.326 438.5,479.5C 433.552,480.653 428.885,482.319 424.5,484.5C 309.511,485.651 194.511,485.817 79.5,485C 73.8462,483.725 68.1796,482.559 62.5,481.5C 60.597,481.204 58.9303,480.537 57.5,479.5C 57.0269,478.094 56.0269,477.427 54.5,477.5C 31.6758,465.657 18.0091,446.991 13.5,421.5C 13.3598,337.351 13.5265,253.018 14,168.5C 52.8036,167.169 91.637,167.169 130.5,168.5C 131.919,167.995 132.585,166.995 132.5,165.5C 132.833,165.5 133.167,165.5 133.5,165.5C 151.008,165.83 168.341,165.497 185.5,164.5 Z"/></g>
<g><path style="opacity:1" fill="#476f92" d="M 11.5,165.5 C 51.8333,165.5 92.1667,165.5 132.5,165.5C 132.585,166.995 131.919,167.995 130.5,168.5C 91.637,167.169 52.8036,167.169 14,168.5C 13.5265,253.018 13.3598,337.351 13.5,421.5C 12.7485,418.253 12.2485,414.919 12,411.5C 11.5,329.501 11.3333,247.501 11.5,165.5 Z"/></g>
<g><path style="opacity:1" fill="#12568b" d="M 483.5,175.5 C 483.167,254.668 483.501,333.668 484.5,412.5C 484.633,418.489 483.633,424.156 481.5,429.5C 482.142,344.676 482.809,260.009 483.5,175.5 Z"/></g>
<g><path style="opacity:1" fill="#114e7a" d="M 472.5,164.5 C 476.4,165.43 480.4,165.763 484.5,165.5C 484.5,247.5 484.5,329.5 484.5,411.5C 484.5,411.833 484.5,412.167 484.5,412.5C 483.501,333.668 483.167,254.668 483.5,175.5C 483.5,172.833 483.5,170.167 483.5,167.5C 455.192,166.533 426.859,166.2 398.5,166.5C 398.5,166.167 398.5,165.833 398.5,165.5C 423.339,165.831 448.006,165.498 472.5,164.5 Z"/></g>
<g><path style="opacity:1" fill="#fdfefe" d="M 242.5,233.5 C 242.5,244.833 242.5,256.167 242.5,267.5C 218.5,267.5 194.5,267.5 170.5,267.5C 170.5,276.5 170.5,285.5 170.5,294.5C 190.993,295.497 211.66,295.831 232.5,295.5C 232.5,297.5 232.5,299.5 232.5,301.5C 232.5,310.167 232.5,318.833 232.5,327.5C 211.833,327.5 191.167,327.5 170.5,327.5C 170.5,349.167 170.5,370.833 170.5,392.5C 154.167,392.5 137.833,392.5 121.5,392.5C 121.5,339.5 121.5,286.5 121.5,233.5C 161.833,233.5 202.167,233.5 242.5,233.5 Z"/></g>
<g><path style="opacity:1" fill="#fcfdfd" d="M 349.5,239.5 C 362.765,277.79 376.932,315.79 392,353.5C 396.514,366.521 401.014,379.521 405.5,392.5C 388.167,392.5 370.833,392.5 353.5,392.5C 352.548,383.68 350.215,375.347 346.5,367.5C 328.005,366.338 309.338,366.171 290.5,367C 287.528,375.415 284.862,383.915 282.5,392.5C 265.799,393.152 249.466,392.485 233.5,390.5C 252.899,338.47 272.399,286.47 292,234.5C 310.093,233.341 328.26,233.175 346.5,234C 347.229,236.058 348.229,237.891 349.5,239.5 Z"/></g>
<g><path style="opacity:1" fill="#0d4c79" d="M 120.5,234.5 C 120.5,287.5 120.5,340.5 120.5,393.5C 122.833,393.5 125.167,393.5 127.5,393.5C 127.5,393.833 127.5,394.167 127.5,394.5C 124.813,394.664 122.146,394.497 119.5,394C 118.941,393.275 118.608,392.442 118.5,391.5C 119.158,339.02 119.825,286.687 120.5,234.5 Z"/></g>
<g><path style="opacity:1" fill="#90b8d6" d="M 242.5,233.5 C 202.167,233.5 161.833,233.5 121.5,233.5C 121.5,286.5 121.5,339.5 121.5,392.5C 137.833,392.5 154.167,392.5 170.5,392.5C 156.343,393.496 142.01,393.829 127.5,393.5C 125.167,393.5 122.833,393.5 120.5,393.5C 120.5,340.5 120.5,287.5 120.5,234.5C 140.489,233.167 160.822,232.5 181.5,232.5C 202.003,232.5 222.336,232.833 242.5,233.5 Z"/></g>
<g><path style="opacity:1" fill="#1c3160" d="M 170.5,294.5 C 170.5,285.5 170.5,276.5 170.5,267.5C 194.5,267.5 218.5,267.5 242.5,267.5C 243.494,258.348 243.827,249.015 243.5,239.5C 245.5,239.5 247.5,239.5 249.5,239.5C 249.5,250.833 249.5,262.167 249.5,273.5C 225.167,273.5 200.833,273.5 176.5,273.5C 176.5,280.5 176.5,287.5 176.5,294.5C 174.5,294.5 172.5,294.5 170.5,294.5 Z"/></g>
<g><path style="opacity:1" fill="#06528f" d="M 322.5,289.5 C 327.406,302.888 331.739,316.554 335.5,330.5C 327.016,331.493 318.349,331.826 309.5,331.5C 314.235,317.627 318.569,303.627 322.5,289.5 Z"/></g>
<g><path style="opacity:1" fill="#1a305f" d="M 322.5,289.5 C 318.569,303.627 314.235,317.627 309.5,331.5C 306.833,331.5 304.167,331.5 301.5,331.5C 307.522,313.541 312.855,295.375 317.5,277C 317.833,276.5 318.167,276 318.5,275.5C 320.041,280.121 321.374,284.788 322.5,289.5 Z"/></g>
<g><path style="opacity:1" fill="#a0b9cf" d="M 335.5,330.5 C 336.043,330.56 336.376,330.893 336.5,331.5C 324.673,332.824 313.007,332.824 301.5,331.5C 304.167,331.5 306.833,331.5 309.5,331.5C 318.349,331.826 327.016,331.493 335.5,330.5 Z"/></g>
<g><path style="opacity:1" fill="#193260" d="M 349.5,239.5 C 352.595,239.626 354.428,241.293 355,244.5C 373.882,296.094 393.048,347.427 412.5,398.5C 394.936,399.824 377.436,399.824 360,398.5C 359.727,396.899 359.227,395.399 358.5,394C 374.339,393.831 390.005,393.331 405.5,392.5C 401.014,379.521 396.514,366.521 392,353.5C 376.932,315.79 362.765,277.79 349.5,239.5 Z"/></g>
<g><path style="opacity:1" fill="#173161" d="M 232.5,301.5 C 234.5,301.5 236.5,301.5 238.5,301.5C 238.5,312.5 238.5,323.5 238.5,334.5C 218.167,334.5 197.833,334.5 177.5,334.5C 177.5,356.167 177.5,377.833 177.5,399.5C 160.833,399.5 144.167,399.5 127.5,399.5C 127.5,397.833 127.5,396.167 127.5,394.5C 127.5,394.167 127.5,393.833 127.5,393.5C 142.01,393.829 156.343,393.496 170.5,392.5C 170.5,370.833 170.5,349.167 170.5,327.5C 191.167,327.5 211.833,327.5 232.5,327.5C 232.5,318.833 232.5,310.167 232.5,301.5 Z"/></g>
<g><path style="opacity:1" fill="#8696ab" d="M 233.5,390.5 C 249.466,392.485 265.799,393.152 282.5,392.5C 268.677,393.496 254.677,393.829 240.5,393.5C 237.833,393.5 235.167,393.5 232.5,393.5C 232.263,392.209 232.596,391.209 233.5,390.5 Z"/></g>
<g><path style="opacity:1" fill="#193060" d="M 346.5,367.5 C 346.5,369.167 346.5,370.833 346.5,372.5C 329.83,372.333 313.163,372.5 296.5,373C 293.936,381.753 291.603,390.587 289.5,399.5C 272.833,399.5 256.167,399.5 239.5,399.5C 239.325,397.379 239.659,395.379 240.5,393.5C 254.677,393.829 268.677,393.496 282.5,392.5C 284.862,383.915 287.528,375.415 290.5,367C 309.338,366.171 328.005,366.338 346.5,367.5 Z"/></g>
<g><path style="opacity:1" fill="#366898" d="M 481.5,430.5 C 477.257,445.332 469.257,457.665 457.5,467.5C 457.192,465.076 457.526,462.743 458.5,460.5C 460.936,461.891 461.602,461.391 460.5,459C 461.793,458.51 463.127,458.343 464.5,458.5C 464.833,455.5 466.5,453.833 469.5,453.5C 467.516,450.139 468.516,448.472 472.5,448.5C 472.674,446.139 473.007,443.806 473.5,441.5C 474.5,441.5 475.5,441.5 476.5,441.5C 477.224,438.065 477.39,434.731 477,431.5C 477.249,432.624 477.749,433.624 478.5,434.5C 479.15,432.816 480.15,431.483 481.5,430.5 Z"/></g>
<g><path style="opacity:0.306" fill="#b2cde6" d="M 54.5,477.5 C 56.0269,477.427 57.0269,478.094 57.5,479.5C 55.9731,479.573 54.9731,478.906 54.5,477.5 Z"/></g>
<g><path style="opacity:0.298" fill="#a3c8ea" d="M 442.5,477.5 C 441.713,479.104 440.38,479.771 438.5,479.5C 439.514,478.326 440.847,477.66 442.5,477.5 Z"/></g>
<g><path style="opacity:0.231" fill="#a8cae3" d="M 438.5,479.5 C 434.336,482.334 429.669,484.001 424.5,484.5C 428.885,482.319 433.552,480.653 438.5,479.5 Z"/></g>
<g><path style="opacity:0.408" fill="#99bbd1" d="M 62.5,481.5 C 68.1796,482.559 73.8462,483.725 79.5,485C 194.511,485.817 309.511,485.651 424.5,484.5C 422.708,485.309 420.708,485.809 418.5,486C 305.167,486.667 191.833,486.667 78.5,486C 72.7937,485.41 67.4603,483.91 62.5,481.5 Z"/></g>
</svg>
