<?xml version="1.0" encoding="UTF-8"?>
<!DOCTYPE svg PUBLIC "-//W3C//DTD SVG 1.1//EN" "http://www.w3.org/Graphics/SVG/1.1/DTD/svg11.dtd">
<svg xmlns="http://www.w3.org/2000/svg" version="1.1" width="2048px" height="2048px" style="shape-rendering:geometricPrecision; text-rendering:geometricPrecision; image-rendering:optimizeQuality; fill-rule:evenodd; clip-rule:evenodd" xmlns:xlink="http://www.w3.org/1999/xlink">
<g><path style="opacity:1" fill="#f4c417" d="M 111.5,-0.5 C 719.5,-0.5 1327.5,-0.5 1935.5,-0.5C 1989.55,8.7041 2025.38,39.3708 2043,91.5C 2044.72,98.2585 2046.22,104.925 2047.5,111.5C 2047.5,719.5 2047.5,1327.5 2047.5,1935.5C 2038.3,1989.55 2007.63,2025.38 1955.5,2043C 1948.74,2044.72 1942.07,2046.22 1935.5,2047.5C 1327.5,2047.5 719.5,2047.5 111.5,2047.5C 57.4517,2038.3 21.6184,2007.63 4,1955.5C 2.28494,1948.74 0.784944,1942.07 -0.5,1935.5C -0.5,1327.5 -0.5,719.5 -0.5,111.5C 8.7041,57.4517 39.3708,21.6184 91.5,4C 98.2585,2.28494 104.925,0.784944 111.5,-0.5 Z"/></g>
<g><path style="opacity:1" fill="#000000" d="M 255.5,735.5 C 308.833,735.5 362.167,735.5 415.5,735.5C 415.5,927.5 415.5,1119.5 415.5,1311.5C 362.167,1311.5 308.833,1311.5 255.5,1311.5C 255.5,1119.5 255.5,927.5 255.5,735.5 Z"/></g>
<g><path style="opacity:1" fill="#000000" d="M 824.5,1311.5 C 824.667,1182.17 824.5,1052.83 824,923.5C 823.209,924.745 822.709,926.078 822.5,927.5C 804.835,1055.49 787.169,1183.49 769.5,1311.5C 737.167,1311.5 704.833,1311.5 672.5,1311.5C 654.725,1188.08 636.392,1064.74 617.5,941.5C 617.196,938.478 616.696,935.478 616,932.5C 615.5,986.499 615.333,1040.5 615.5,1094.5C 615.5,1166.83 615.5,1239.17 615.5,1311.5C 570.167,1311.5 524.833,1311.5 479.5,1311.5C 479.5,1119.5 479.5,927.5 479.5,735.5C 546.503,735.167 613.503,735.5 680.5,736.5C 694.408,825.432 707.908,914.432 721,1003.5C 733.557,914.26 745.391,824.927 756.5,735.5C 824.167,735.5 891.833,735.5 959.5,735.5C 959.5,927.5 959.5,1119.5 959.5,1311.5C 914.5,1311.5 869.5,1311.5 824.5,1311.5 Z"/></g>
<g><path style="opacity:1" fill="#000000" d="M 1023.5,735.5 C 1110.5,735.333 1197.5,735.5 1284.5,736C 1335.1,744.601 1365.27,774.101 1375,824.5C 1375.67,956.5 1375.67,1088.5 1375,1220.5C 1366.18,1271.99 1336.01,1302.16 1284.5,1311C 1197.5,1311.5 1110.5,1311.67 1023.5,1311.5C 1023.5,1119.5 1023.5,927.5 1023.5,735.5 Z"/></g>
<g><path style="opacity:1" fill="#000000" d="M 1439.5,735.5 C 1490.5,735.5 1541.5,735.5 1592.5,735.5C 1592.33,797.168 1592.5,858.834 1593,920.5C 1619.31,889.61 1652.81,876.11 1693.5,880C 1735.71,883.565 1765.88,904.398 1784,942.5C 1787.42,950.523 1789.76,958.857 1791,967.5C 1791.67,1050.5 1791.67,1133.5 1791,1216.5C 1787.17,1257.31 1766.67,1286.14 1729.5,1303C 1698.9,1313.84 1668.24,1314.18 1637.5,1304C 1619.54,1296.35 1604.54,1284.85 1592.5,1269.5C 1588.41,1280.88 1585.41,1292.54 1583.5,1304.5C 1535.5,1304.5 1487.5,1304.5 1439.5,1304.5C 1439.5,1114.83 1439.5,925.167 1439.5,735.5 Z"/></g>
<g><path style="opacity:1" fill="#7c630b" d="M 1184.5,834.5 C 1181.17,834.5 1177.83,834.5 1174.5,834.5C 1174.5,960.167 1174.5,1085.83 1174.5,1211.5C 1177.5,1211.5 1180.5,1211.5 1183.5,1211.5C 1180.38,1212.48 1177.04,1212.81 1173.5,1212.5C 1173.5,1086.17 1173.5,959.833 1173.5,833.5C 1177.37,833.185 1181.04,833.518 1184.5,834.5 Z"/></g>
<g><path style="opacity:1" fill="#f3c317" d="M 1184.5,834.5 C 1214.22,833.386 1227.72,847.719 1225,877.5C 1225.67,967.167 1225.67,1056.83 1225,1146.5C 1224.77,1160.61 1223.44,1174.61 1221,1188.5C 1219.04,1199.13 1212.87,1205.96 1202.5,1209C 1196.22,1210.27 1189.88,1211.1 1183.5,1211.5C 1180.5,1211.5 1177.5,1211.5 1174.5,1211.5C 1174.5,1085.83 1174.5,960.167 1174.5,834.5C 1177.83,834.5 1181.17,834.5 1184.5,834.5 Z"/></g>
<g><path style="opacity:1" fill="#f4c417" d="M 1610.5,968.5 C 1620.34,968.043 1629.34,970.543 1637.5,976C 1641.81,983.169 1643.97,991.002 1644,999.5C 1644.67,1062.5 1644.67,1125.5 1644,1188.5C 1643.25,1195.95 1641.91,1203.28 1640,1210.5C 1633.29,1216.69 1625.29,1219.69 1616,1219.5C 1606.98,1219.82 1599.31,1216.82 1593,1210.5C 1592.33,1132.83 1592.33,1055.17 1593,977.5C 1598.03,972.737 1603.86,969.737 1610.5,968.5 Z"/></g>
<g><path style="opacity:1" fill="#d9af15" d="M 617.5,941.5 C 616.833,992.5 616.167,1043.5 615.5,1094.5C 615.333,1040.5 615.5,986.499 616,932.5C 616.696,935.478 617.196,938.478 617.5,941.5 Z"/></g>
<g><path style="opacity:1" fill="#715b0b" d="M 824.5,1311.5 C 823.833,1183.5 823.167,1055.5 822.5,927.5C 822.709,926.078 823.209,924.745 824,923.5C 824.5,1052.83 824.667,1182.17 824.5,1311.5 Z"/></g>
</svg>
