<?xml version="1.0" encoding="UTF-8"?>
<!DOCTYPE svg PUBLIC "-//W3C//DTD SVG 1.1//EN" "http://www.w3.org/Graphics/SVG/1.1/DTD/svg11.dtd">
<svg xmlns="http://www.w3.org/2000/svg" version="1.1" width="50px" height="50px" style="shape-rendering:geometricPrecision; text-rendering:geometricPrecision; image-rendering:optimizeQuality; fill-rule:evenodd; clip-rule:evenodd" xmlns:xlink="http://www.w3.org/1999/xlink">
<g><path style="opacity:0.828" fill="#fe0000" d="M 9.5,4.5 C 19.5056,4.33352 29.5056,4.50019 39.5,5C 43.3684,7.16167 44.8684,10.3283 44,14.5C 42.6667,15.8333 41.3333,15.8333 40,14.5C 39.7266,12.8988 39.2266,11.3988 38.5,10C 29.5,9.33333 20.5,9.33333 11.5,10C 11,10.5 10.5,11 10,11.5C 9.50038,18.4921 9.33371,25.4921 9.5,32.5C 14.1358,33.1489 18.8024,33.6489 23.5,34C 24.727,35.5874 24.3937,36.9207 22.5,38C 16.1667,38.6667 9.83333,38.6667 3.5,38C 0.921055,36.3883 0.921055,34.8883 3.5,33.5C 4.33161,25.5207 4.83161,17.5207 5,9.5C 6.70733,7.96252 8.20733,6.29585 9.5,4.5 Z"/></g>
<g><path style="opacity:0.824" fill="#fe0000" d="M 31.5,18.5 C 35.1817,18.3347 38.8484,18.5014 42.5,19C 44.6667,19.8333 46.1667,21.3333 47,23.5C 47.6667,29.5 47.6667,35.5 47,41.5C 45.3809,46.0664 42.0476,48.0664 37,47.5C 33.5594,47.6865 30.5594,46.6865 28,44.5C 26.4492,37.5817 26.1158,30.5817 27,23.5C 28.025,21.313 29.525,19.6464 31.5,18.5 Z M 32.5,23.5 C 36.0297,22.9889 39.1963,23.6556 42,25.5C 42.6667,30.5 42.6667,35.5 42,40.5C 38.6667,43.1667 35.3333,43.1667 32,40.5C 31.2599,34.7821 31.4265,29.1154 32.5,23.5 Z"/></g>
</svg>
