<?xml version="1.0" encoding="UTF-8"?>
<!DOCTYPE svg PUBLIC "-//W3C//DTD SVG 1.1//EN" "http://www.w3.org/Graphics/SVG/1.1/DTD/svg11.dtd">
<svg xmlns="http://www.w3.org/2000/svg" version="1.1" width="50px" height="50px" style="shape-rendering:geometricPrecision; text-rendering:geometricPrecision; image-rendering:optimizeQuality; fill-rule:evenodd; clip-rule:evenodd" xmlns:xlink="http://www.w3.org/1999/xlink">
<g><path style="opacity:0.85" fill="#fe0000" d="M 9.5,3.5 C 21.0809,3.17887 32.5809,3.51221 44,4.5C 44.3072,17.3816 44.4739,30.2149 44.5,43C 44.3552,43.772 44.0219,44.4387 43.5,45C 40.1667,45.6667 36.8333,45.6667 33.5,45C 32.3239,41.6908 33.6572,40.1908 37.5,40.5C 37.2865,38.8561 37.6198,37.3561 38.5,36C 29.5,35.3333 20.5,35.3333 11.5,36C 10.6433,36.6891 9.97665,37.5224 9.5,38.5C 11.1133,40.0879 13.1133,41.0879 15.5,41.5C 16.731,42.6507 16.731,43.8173 15.5,45C 11.1019,46.3785 7.60193,45.2118 5,41.5C 4.33333,30.5 4.33333,19.5 5,8.5C 6.02496,6.31305 7.52496,4.64638 9.5,3.5 Z M 10.5,8.5 C 20.1667,8.5 29.8333,8.5 39.5,8.5C 39.5,16.1667 39.5,23.8333 39.5,31.5C 29.5,31.5 19.5,31.5 9.5,31.5C 9.23293,23.7777 9.56626,16.111 10.5,8.5 Z"/></g>
<g><path style="opacity:0.673" fill="#fe0000" d="M 13.5,10.5 C 14.8734,10.3433 16.2068,10.51 17.5,11C 18.474,13.702 17.474,15.0354 14.5,15C 12.4523,13.7741 12.119,12.2741 13.5,10.5 Z"/></g>
<g><path style="opacity:0.675" fill="#fe0000" d="M 13.5,17.5 C 14.8734,17.3433 16.2068,17.51 17.5,18C 18.474,20.702 17.474,22.0354 14.5,22C 12.4523,20.7741 12.119,19.2741 13.5,17.5 Z"/></g>
<g><path style="opacity:0.648" fill="#fe0000" d="M 14.5,23.5 C 19.2219,24.9147 19.5552,26.9147 15.5,29.5C 12.025,27.9158 11.6917,25.9158 14.5,23.5 Z"/></g>
<g><path style="opacity:0.848" fill="#fe0000" d="M 30.5,49.5 C 29.1667,49.5 27.8333,49.5 26.5,49.5C 25.1667,46.8333 23.8333,46.8333 22.5,49.5C 21.1667,49.5 19.8333,49.5 18.5,49.5C 18.5,45.8333 18.5,42.1667 18.5,38.5C 22.5,38.5 26.5,38.5 30.5,38.5C 30.5,42.1667 30.5,45.8333 30.5,49.5 Z"/></g>
</svg>
