<?xml version="1.0" encoding="UTF-8"?>
<!DOCTYPE svg PUBLIC "-//W3C//DTD SVG 1.1//EN" "http://www.w3.org/Graphics/SVG/1.1/DTD/svg11.dtd">
<svg xmlns="http://www.w3.org/2000/svg" version="1.1" width="720px" height="720px" style="shape-rendering:geometricPrecision; text-rendering:geometricPrecision; image-rendering:optimizeQuality; fill-rule:evenodd; clip-rule:evenodd" xmlns:xlink="http://www.w3.org/1999/xlink">
<g><path style="opacity:0.016" fill="#616161" d="M 286.5,60.5 C 289.304,59.3622 292.304,59.1955 295.5,60C 292.518,60.498 289.518,60.6646 286.5,60.5 Z"/></g>
<g><path style="opacity:0.012" fill="#5c5c5c" d="M 296.5,61.5 C 298.288,60.3775 300.288,60.2109 302.5,61C 300.527,61.4955 298.527,61.6621 296.5,61.5 Z"/></g>
<g><path style="opacity:0.008" fill="#646464" d="M 227.5,62.5 C 228.946,61.3871 230.613,61.2204 232.5,62C 230.866,62.4935 229.199,62.6602 227.5,62.5 Z"/></g>
<g><path style="opacity:0.999" fill="#555555" d="M 286.5,60.5 C 308.836,63.1686 330.503,68.8353 351.5,77.5C 361.397,82.4528 371.064,87.9528 380.5,94C 381.833,94 383.167,94 384.5,94C 385.073,97.8101 387.406,99.4768 391.5,99C 392.833,99.6667 392.833,100.333 391.5,101C 396.373,105.378 401.373,109.545 406.5,113.5C 406.5,114.167 406.833,114.5 407.5,114.5C 407.5,115.167 407.833,115.5 408.5,115.5C 413.108,120.322 417.942,124.322 423,127.5C 423.617,128.449 423.451,129.282 422.5,130C 424.365,132.631 426.532,134.131 429,134.5C 429.617,135.449 429.451,136.282 428.5,137C 429.743,139.034 431.243,139.867 433,139.5C 433.617,140.449 433.451,141.282 432.5,142C 433.552,143.119 434.719,143.619 436,143.5C 444.391,154.909 452.058,167.909 459,182.5C 459.595,183.899 459.428,185.232 458.5,186.5C 459.183,189.461 460.016,189.795 461,187.5C 461.695,189.722 462.528,191.889 463.5,194C 462.813,195.162 462.647,196.328 463,197.5C 463.667,198.833 464.333,198.833 465,197.5C 466.497,199.959 466.664,202.459 465.5,205C 465.899,206.728 466.566,208.228 467.5,209.5C 468.347,214.888 469.513,220.221 471,225.5C 471.333,224.167 471.667,222.833 472,221.5C 472.499,224.022 472.332,226.522 471.5,229C 471.912,232.027 472.579,234.86 473.5,237.5C 474.728,250.803 475.395,264.136 475.5,277.5C 474.515,281.634 474.182,285.968 474.5,290.5C 473.532,292.607 473.198,294.941 473.5,297.5C 472.539,299.265 472.205,301.265 472.5,303.5C 471.539,305.265 471.205,307.265 471.5,309.5C 470.566,310.568 470.232,311.901 470.5,313.5C 469.566,314.568 469.232,315.901 469.5,317.5C 468.566,318.568 468.232,319.901 468.5,321.5C 467.566,322.568 467.232,323.901 467.5,325.5C 466.596,326.209 466.263,327.209 466.5,328.5C 465.167,329.5 465.167,330.5 466.5,331.5C 466.737,332.791 466.404,333.791 465.5,334.5C 465.167,333.167 464.833,333.167 464.5,334.5C 463.596,335.209 463.263,336.209 463.5,337.5C 462.167,338.167 462.167,338.833 463.5,339.5C 463.267,342.542 462.267,345.208 460.5,347.5C 460.167,344.833 459.833,344.833 459.5,347.5C 458.662,347.842 458.328,348.508 458.5,349.5C 457.167,350.167 457.167,350.833 458.5,351.5C 452.689,366.625 444.689,380.458 434.5,393C 510.054,468.554 584.554,543.054 658,616.5C 657.266,619.054 657.766,621.387 659.5,623.5C 659.185,627.371 659.518,631.038 660.5,634.5C 659.742,640.016 657.409,644.683 653.5,648.5C 653.167,647.167 652.833,647.167 652.5,648.5C 651.833,648.5 651.5,648.833 651.5,649.5C 650.833,649.5 650.5,649.833 650.5,650.5C 649.833,650.5 649.5,650.833 649.5,651.5C 648.833,651.5 648.5,651.833 648.5,652.5C 647.833,652.5 647.5,652.833 647.5,653.5C 646.508,653.328 645.842,653.662 645.5,654.5C 644.833,654.5 644.5,654.833 644.5,655.5C 643.508,655.328 642.842,655.662 642.5,656.5C 641.508,656.328 640.842,656.662 640.5,657.5C 639.508,657.328 638.842,657.662 638.5,658.5C 636.901,658.232 635.568,658.566 634.5,659.5C 629.797,659.563 625.13,659.229 620.5,658.5C 619.486,657.326 618.153,656.66 616.5,656.5C 541.256,582.756 466.422,508.423 392,433.5C 391.005,434.066 390.172,434.733 389.5,435.5C 388.833,435.5 388.5,435.833 388.5,436.5C 387.508,436.328 386.842,436.662 386.5,437.5C 385.833,437.5 385.5,437.833 385.5,438.5C 384.167,438.833 384.167,439.167 385.5,439.5C 385.158,440.338 384.492,440.672 383.5,440.5C 383.167,439.167 382.833,439.167 382.5,440.5C 381.833,440.5 381.5,440.833 381.5,441.5C 380.508,441.328 379.842,441.662 379.5,442.5C 378.508,442.328 377.842,442.662 377.5,443.5C 376.833,443.5 376.5,443.833 376.5,444.5C 375.508,444.328 374.842,444.662 374.5,445.5C 373.833,445.5 373.5,445.833 373.5,446.5C 372.508,446.328 371.842,446.662 371.5,447.5C 370.508,447.328 369.842,447.662 369.5,448.5C 368.508,448.328 367.842,448.662 367.5,449.5C 366.833,449.5 366.5,449.833 366.5,450.5C 365.508,450.328 364.842,450.662 364.5,451.5C 363.508,451.328 362.842,451.662 362.5,452.5C 361.508,452.328 360.842,452.662 360.5,453.5C 359.508,453.328 358.842,453.662 358.5,454.5C 357.508,454.328 356.842,454.662 356.5,455.5C 355.508,455.328 354.842,455.662 354.5,456.5C 353.508,456.328 352.842,456.662 352.5,457.5C 351.209,457.263 350.209,457.596 349.5,458.5C 348.508,458.328 347.842,458.662 347.5,459.5C 346.508,459.328 345.842,459.662 345.5,460.5C 344.209,460.263 343.209,460.596 342.5,461.5C 340.447,461.402 338.78,462.069 337.5,463.5C 336.209,463.263 335.209,463.596 334.5,464.5C 333.209,464.263 332.209,464.596 331.5,465.5C 330.209,465.263 329.209,465.596 328.5,466.5C 325.848,466.41 323.515,467.076 321.5,468.5C 319.901,468.232 318.568,468.566 317.5,469.5C 315.901,469.232 314.568,469.566 313.5,470.5C 311.901,470.232 310.568,470.566 309.5,471.5C 307.265,471.205 305.265,471.539 303.5,472.5C 301.265,472.205 299.265,472.539 297.5,473.5C 287.508,474.217 277.508,474.884 267.5,475.5C 257.492,474.884 247.492,474.217 237.5,473.5C 227.248,471.313 216.915,468.98 206.5,466.5C 179.982,457.586 156.649,444.919 136.5,428.5C 136.5,427.833 136.167,427.5 135.5,427.5C 133.229,425.734 131.063,423.734 129,421.5C 126.709,422.311 124.875,421.477 123.5,419C 123.833,418.667 124.167,418.333 124.5,418C 120.992,413.766 117.158,410.599 113,408.5C 113.253,405.643 111.919,403.309 109,401.5C 108.333,402.833 107.667,402.833 107,401.5C 106.383,400.551 106.549,399.718 107.5,399C 106.257,396.966 104.757,396.133 103,396.5C 103.617,394.905 103.284,393.572 102,392.5C 100.853,393.458 99.8525,393.125 99,391.5C 98.3645,390.034 97.5312,388.7 96.5,387.5C 96.7093,386.914 97.0426,386.414 97.5,386C 96.4479,384.881 95.2812,384.381 94,384.5C 90.3022,379.102 87.1355,373.435 84.5,367.5C 85.8333,366.833 85.8333,366.167 84.5,365.5C 84.1667,364.167 83.8333,364.167 83.5,365.5C 80.5531,362.005 78.5531,358.005 77.5,353.5C 78.8333,352.833 78.8333,352.167 77.5,351.5C 77.6716,350.508 77.3382,349.842 76.5,349.5C 76.1667,346.833 75.8333,346.833 75.5,349.5C 74.596,348.791 74.2627,347.791 74.5,346.5C 75.8333,345.833 75.8333,345.167 74.5,344.5C 74.1667,341.833 73.8333,341.833 73.5,344.5C 71.7329,342.208 70.7329,339.542 70.5,336.5C 71.8333,335.5 71.8333,334.5 70.5,333.5C 70.7373,332.209 70.404,331.209 69.5,330.5C 69.1667,329.167 68.8333,329.167 68.5,330.5C 67.596,329.791 67.2627,328.791 67.5,327.5C 68.8333,326.5 68.8333,325.5 67.5,324.5C 67.7678,322.901 67.4345,321.568 66.5,320.5C 66.7678,318.901 66.4345,317.568 65.5,316.5C 65.7678,314.901 65.4345,313.568 64.5,312.5C 64.7845,310.585 64.4511,308.919 63.5,307.5C 63.7845,305.585 63.4511,303.919 62.5,302.5C 62.8016,299.941 62.4682,297.607 61.5,295.5C 61.81,292.287 61.4767,289.287 60.5,286.5C 59.6262,265.008 60.9596,243.675 64.5,222.5C 66.767,217.759 67.6003,212.759 67,207.5C 67.3333,208.5 67.6667,209.5 68,210.5C 69.4973,208.041 69.664,205.541 68.5,203C 69,201.5 69.5,200 70,198.5C 71.1313,199.604 71.9646,199.271 72.5,197.5C 71.5721,196.232 71.4054,194.899 72,193.5C 72.3333,194.167 72.6667,194.833 73,195.5C 74.9757,192.29 75.6424,188.957 75,185.5C 76,183.5 77,181.5 78,179.5C 78.3333,180.167 78.6667,180.833 79,181.5C 80.5,178.5 82,175.5 83.5,172.5C 82.6929,170.039 83.1929,167.706 85,165.5C 89.7511,157.663 94.7511,149.996 100,142.5C 101.757,142.867 103.257,142.034 104.5,140C 104.043,139.586 103.709,139.086 103.5,138.5C 105.224,137.967 106.891,136.801 108.5,135C 107.332,133.129 107.832,131.629 110,130.5C 110.333,130.833 110.667,131.167 111,131.5C 113.705,128.964 116.205,126.297 118.5,123.5C 119.167,123.5 119.5,123.167 119.5,122.5C 120.167,122.5 120.5,122.167 120.5,121.5C 121.167,121.5 121.5,121.167 121.5,120.5C 122.5,120.167 123.167,119.5 123.5,118.5C 124.167,118.5 124.5,118.167 124.5,117.5C 127.526,114.805 130.526,112.138 133.5,109.5C 134.167,109.5 134.5,109.167 134.5,108.5C 177.749,72.9887 228.416,56.9887 286.5,60.5 Z M 251.5,114.5 C 256.823,113.834 262.323,113.501 268,113.5C 276.06,113.307 283.893,113.973 291.5,115.5C 288.833,115.5 286.167,115.5 283.5,115.5C 273.013,114.506 262.346,114.172 251.5,114.5 Z M 283.5,115.5 C 296.185,117.142 308.685,120.142 321,124.5C 321.765,124.43 322.265,124.097 322.5,123.5C 324.553,123.402 326.22,124.069 327.5,125.5C 326.761,125.369 326.094,125.536 325.5,126C 333.007,129.255 340.341,132.755 347.5,136.5C 347.842,137.338 348.508,137.672 349.5,137.5C 352.952,140.399 356.618,143.066 360.5,145.5C 360.973,146.906 361.973,147.573 363.5,147.5C 363.833,148.5 364.5,149.167 365.5,149.5C 365.973,150.906 366.973,151.573 368.5,151.5C 373.167,156.833 378.167,161.833 383.5,166.5C 383.738,168.404 384.738,169.738 386.5,170.5C 386.833,171.5 387.5,172.167 388.5,172.5C 388.427,174.027 389.094,175.027 390.5,175.5C 390.738,177.404 391.738,178.738 393.5,179.5C 393.427,181.027 394.094,182.027 395.5,182.5C 395.427,184.027 396.094,185.027 397.5,185.5C 397.75,187.674 398.75,189.341 400.5,190.5C 400.328,191.492 400.662,192.158 401.5,192.5C 403.93,198.357 406.597,204.023 409.5,209.5C 409.796,211.403 410.463,213.07 411.5,214.5C 411.263,215.791 411.596,216.791 412.5,217.5C 412.263,218.791 412.596,219.791 413.5,220.5C 413.41,223.152 414.076,225.485 415.5,227.5C 416.01,231.884 416.843,236.218 418,240.5C 418.49,239.207 418.657,237.873 418.5,236.5C 419.451,237.919 419.784,239.585 419.5,241.5C 418.848,242.449 418.514,243.615 418.5,245C 418.98,250.338 419.647,255.505 420.5,260.5C 420.5,265.167 420.5,269.833 420.5,274.5C 419.685,279.668 419.019,285.001 418.5,290.5C 418.52,291.726 418.853,292.726 419.5,293.5C 419.795,295.735 419.461,297.735 418.5,299.5C 418.66,297.801 418.494,296.134 418,294.5C 416.671,300.148 415.504,305.815 414.5,311.5C 413.596,312.209 413.263,313.209 413.5,314.5C 411.928,317.215 410.928,320.215 410.5,323.5C 409.069,324.78 408.402,326.447 408.5,328.5C 404.992,334.182 401.992,340.182 399.5,346.5C 398.094,346.973 397.427,347.973 397.5,349.5C 396.662,349.842 396.328,350.508 396.5,351.5C 395.094,351.973 394.427,352.973 394.5,354.5C 393.833,354.5 393.5,354.833 393.5,355.5C 392.094,355.973 391.427,356.973 391.5,358.5C 390.094,358.973 389.427,359.973 389.5,361.5C 388.5,361.833 387.833,362.5 387.5,363.5C 386.094,363.973 385.427,364.973 385.5,366.5C 383.833,367.5 382.5,368.833 381.5,370.5C 377.5,373.833 373.833,377.5 370.5,381.5C 368.833,382.5 367.5,383.833 366.5,385.5C 364.973,385.427 363.973,386.094 363.5,387.5C 361.091,388.701 359.091,390.367 357.5,392.5C 356.508,392.328 355.842,392.662 355.5,393.5C 336.839,405.669 316.506,413.835 294.5,418C 296.134,418.494 297.801,418.66 299.5,418.5C 282.614,422.618 265.614,423.285 248.5,420.5C 252.514,420.666 256.514,420.499 260.5,420C 226.406,418.03 196.073,406.53 169.5,385.5C 169.027,384.094 168.027,383.427 166.5,383.5C 161.833,378.167 156.833,373.167 151.5,368.5C 151.262,366.596 150.262,365.262 148.5,364.5C 148.5,363.833 148.167,363.5 147.5,363.5C 147.573,361.973 146.906,360.973 145.5,360.5C 145.5,359.833 145.167,359.5 144.5,359.5C 144.573,357.973 143.906,356.973 142.5,356.5C 142.5,355.833 142.167,355.5 141.5,355.5C 140.617,352.296 138.95,349.629 136.5,347.5C 136.25,345.326 135.25,343.659 133.5,342.5C 133.672,341.508 133.338,340.842 132.5,340.5C 132.672,339.508 132.338,338.842 131.5,338.5C 131.34,336.847 130.674,335.514 129.5,334.5C 129.672,333.508 129.338,332.842 128.5,332.5C 128.598,330.447 127.931,328.78 126.5,327.5C 126.204,325.597 125.537,323.93 124.5,322.5C 124.737,321.209 124.404,320.209 123.5,319.5C 123.405,317.214 122.738,315.214 121.5,313.5C 121.737,312.209 121.404,311.209 120.5,310.5C 119.987,306.447 119.154,302.447 118,298.5C 117.51,299.793 117.343,301.127 117.5,302.5C 116.549,301.081 116.216,299.415 116.5,297.5C 115.539,295.735 115.205,293.735 115.5,291.5C 115.514,278.352 115.681,265.018 116,251.5C 116.8,243.201 118.3,235.034 120.5,227C 120.43,226.235 120.097,225.735 119.5,225.5C 119.232,223.901 119.566,222.568 120.5,221.5C 120.351,222.552 120.517,223.552 121,224.5C 121.813,222.564 122.313,220.564 122.5,218.5C 123.404,217.791 123.737,216.791 123.5,215.5C 124.404,214.791 124.737,213.791 124.5,212.5C 126.065,210.491 127.065,208.157 127.5,205.5C 128.931,204.22 129.598,202.553 129.5,200.5C 132.258,197.322 134.258,193.655 135.5,189.5C 137.25,188.341 138.25,186.674 138.5,184.5C 139.906,184.027 140.573,183.027 140.5,181.5C 141.906,181.027 142.573,180.027 142.5,178.5C 144.262,177.738 145.262,176.404 145.5,174.5C 147.262,173.738 148.262,172.404 148.5,170.5C 149.5,170.167 150.167,169.5 150.5,168.5C 152.587,167.415 153.92,165.749 154.5,163.5C 158.167,160.5 161.5,157.167 164.5,153.5C 166.027,153.573 167.027,152.906 167.5,151.5C 168.833,150.833 169.833,149.833 170.5,148.5C 172.027,148.573 173.027,147.906 173.5,146.5C 180.974,140.924 188.974,136.091 197.5,132C 198.738,131.31 198.738,130.81 197.5,130.5C 197.842,129.662 198.508,129.328 199.5,129.5C 199.56,130.043 199.893,130.376 200.5,130.5C 208.163,126.502 216.163,123.336 224.5,121C 223.552,120.517 222.552,120.351 221.5,120.5C 223.515,119.076 225.848,118.41 228.5,118.5C 229.097,119.139 229.93,119.472 231,119.5C 248.31,115.932 265.81,114.599 283.5,115.5 Z M 420.5,248.5 C 423.125,261.498 423.125,274.498 420.5,287.5C 420.5,283.167 420.5,278.833 420.5,274.5C 421.833,269.833 421.833,265.167 420.5,260.5C 420.5,256.5 420.5,252.5 420.5,248.5 Z M 342.5,461.5 C 341.22,462.931 339.553,463.598 337.5,463.5C 338.78,462.069 340.447,461.402 342.5,461.5 Z M 328.5,466.5 C 326.485,467.924 324.152,468.59 321.5,468.5C 323.515,467.076 325.848,466.41 328.5,466.5 Z"/></g>
<g><path style="opacity:0.012" fill="#494949" d="M 207.5,67.5 C 208.251,66.4265 209.251,66.2599 210.5,67C 209.552,67.4828 208.552,67.6495 207.5,67.5 Z"/></g>
<g><path style="opacity:0.012" fill="#797979" d="M 351.5,77.5 C 351.897,76.475 352.563,76.3083 353.5,77C 352.906,77.4643 352.239,77.631 351.5,77.5 Z"/></g>
<g><path style="opacity:0.004" fill="#262626" d="M 354.5,78.5 C 354.897,77.475 355.563,77.3083 356.5,78C 355.906,78.4643 355.239,78.631 354.5,78.5 Z"/></g>
<g><path style="opacity:0.008" fill="#8e8e8e" d="M 134.5,108.5 C 133.833,108.5 133.5,108.833 133.5,109.5C 131.025,109.253 131.025,108.587 133.5,107.5C 134.107,107.624 134.44,107.957 134.5,108.5 Z"/></g>
<g><path style="opacity:0.004" fill="#131313" d="M 406.5,113.5 C 408.07,112.441 409.403,112.941 410.5,115C 409.906,115.464 409.239,115.631 408.5,115.5C 407.833,115.5 407.5,115.167 407.5,114.5C 406.833,114.5 406.5,114.167 406.5,113.5 Z"/></g>
<g><path style="opacity:0.016" fill="#383838" d="M 124.5,117.5 C 123.833,117.5 123.5,117.833 123.5,118.5C 122.957,118.44 122.624,118.107 122.5,117.5C 123.257,116.227 123.923,116.227 124.5,117.5 Z"/></g>
<g><path style="opacity:0.016" fill="#363636" d="M 121.5,120.5 C 120.833,120.5 120.5,120.833 120.5,121.5C 119.833,121.5 119.5,121.833 119.5,122.5C 118.833,122.5 118.5,122.833 118.5,123.5C 117.493,121.732 118.159,120.399 120.5,119.5C 121.107,119.624 121.44,119.957 121.5,120.5 Z"/></g>
<g><path style="opacity:0.006" fill="#303030" d="M 360.5,145.5 C 361.167,145.5 361.833,145.5 362.5,145.5C 362.5,146.167 362.833,146.5 363.5,146.5C 363.5,146.833 363.5,147.167 363.5,147.5C 361.973,147.573 360.973,146.906 360.5,145.5 Z"/></g>
<g><path style="opacity:0.005" fill="#141414" d="M 365.5,149.5 C 366.167,149.5 366.833,149.5 367.5,149.5C 367.5,150.167 367.833,150.5 368.5,150.5C 368.5,150.833 368.5,151.167 368.5,151.5C 366.973,151.573 365.973,150.906 365.5,149.5 Z"/></g>
<g><path style="opacity:0.004" fill="#242424" d="M 165.5,151.5 C 166.167,151.5 166.833,151.5 167.5,151.5C 167.027,152.906 166.027,153.573 164.5,153.5C 164.5,153.167 164.5,152.833 164.5,152.5C 165.167,152.5 165.5,152.167 165.5,151.5 Z"/></g>
<g><path style="opacity:0.012" fill="#494949" d="M 467.5,209.5 C 467.351,208.448 467.517,207.448 468,206.5C 468.74,207.749 468.573,208.749 467.5,209.5 Z"/></g>
<g><path style="opacity:0.016" fill="#565656" d="M 64.5,222.5 C 63.4017,221.399 63.235,220.066 64,218.5C 64.49,219.793 64.6567,221.127 64.5,222.5 Z"/></g>
<g><path style="opacity:0.008" fill="#565656" d="M 474.5,237.5 C 474.167,237.5 473.833,237.5 473.5,237.5C 473.833,229.5 474.167,229.5 474.5,237.5 Z"/></g>
<g><path style="opacity:0.012" fill="#626262" d="M 474.5,237.5 C 475.468,239.607 475.802,241.941 475.5,244.5C 474.532,242.393 474.198,240.059 474.5,237.5 Z"/></g>
<g><path style="opacity:0.012" fill="#565656" d="M 475.5,244.5 C 476.647,248.646 476.814,252.98 476,257.5C 475.501,253.179 475.334,248.846 475.5,244.5 Z"/></g>
<g><path style="opacity:0.004" fill="#252525" d="M 476.5,258.5 C 477.653,264.319 477.819,270.319 477,276.5C 476.501,270.509 476.334,264.509 476.5,258.5 Z"/></g>
<g><path style="opacity:0.016" fill="#5e5e5e" d="M 59.5,286.5 C 58.34,274.007 58.1733,261.34 59,248.5C 59.4999,261.162 59.6666,273.829 59.5,286.5 Z"/></g>
<g><path style="opacity:0.016" fill="#4c4c4c" d="M 475.5,277.5 C 476.833,281.833 476.833,286.167 475.5,290.5C 475.5,286.167 475.5,281.833 475.5,277.5 Z"/></g>
<g><path style="opacity:0.016" fill="#4c4c4c" d="M 59.5,286.5 C 59.8333,286.5 60.1667,286.5 60.5,286.5C 60.5,289.5 60.5,292.5 60.5,295.5C 59.5233,292.713 59.19,289.713 59.5,286.5 Z"/></g>
<g><path style="opacity:0.012" fill="#5e5e5e" d="M 474.5,290.5 C 474.833,290.5 475.167,290.5 475.5,290.5C 475.802,293.059 475.468,295.393 474.5,297.5C 474.5,295.167 474.5,292.833 474.5,290.5 Z"/></g>
<g><path style="opacity:0.016" fill="#474747" d="M 60.5,295.5 C 60.8333,295.5 61.1667,295.5 61.5,295.5C 61.1667,303.5 60.8333,303.5 60.5,295.5 Z"/></g>
<g><path style="opacity:0.016" fill="#4c4c4c" d="M 473.5,297.5 C 473.833,297.5 474.167,297.5 474.5,297.5C 474.795,299.735 474.461,301.735 473.5,303.5C 473.5,301.5 473.5,299.5 473.5,297.5 Z"/></g>
<g><path style="opacity:0.016" fill="#5e5e5e" d="M 62.5,302.5 C 62.5,304.167 62.5,305.833 62.5,307.5C 61.1667,305.833 61.1667,304.167 62.5,302.5 Z"/></g>
<g><path style="opacity:0.012" fill="#4f4f4f" d="M 472.5,303.5 C 472.833,303.5 473.167,303.5 473.5,303.5C 473.795,305.735 473.461,307.735 472.5,309.5C 472.5,307.5 472.5,305.5 472.5,303.5 Z"/></g>
<g><path style="opacity:0.012" fill="#636363" d="M 62.5,307.5 C 62.8333,307.5 63.1667,307.5 63.5,307.5C 63.5,309.167 63.5,310.833 63.5,312.5C 62.5489,311.081 62.2155,309.415 62.5,307.5 Z"/></g>
<g><path style="opacity:0.016" fill="#494949" d="M 471.5,309.5 C 471.833,309.5 472.167,309.5 472.5,309.5C 472.768,311.099 472.434,312.432 471.5,313.5C 471.5,312.167 471.5,310.833 471.5,309.5 Z"/></g>
<g><path style="opacity:0.016" fill="#484848" d="M 63.5,312.5 C 63.8333,312.5 64.1667,312.5 64.5,312.5C 64.5,313.833 64.5,315.167 64.5,316.5C 63.5655,315.432 63.2322,314.099 63.5,312.5 Z"/></g>
<g><path style="opacity:0.016" fill="#363636" d="M 470.5,313.5 C 470.833,313.5 471.167,313.5 471.5,313.5C 471.768,315.099 471.434,316.432 470.5,317.5C 470.5,316.167 470.5,314.833 470.5,313.5 Z"/></g>
<g><path style="opacity:0.016" fill="#363636" d="M 64.5,316.5 C 64.8333,316.5 65.1667,316.5 65.5,316.5C 65.5,317.833 65.5,319.167 65.5,320.5C 64.5655,319.432 64.2322,318.099 64.5,316.5 Z"/></g>
<g><path style="opacity:0.016" fill="#606060" d="M 469.5,317.5 C 469.833,317.5 470.167,317.5 470.5,317.5C 470.768,319.099 470.434,320.432 469.5,321.5C 469.5,320.167 469.5,318.833 469.5,317.5 Z"/></g>
<g><path style="opacity:0.016" fill="#525252" d="M 65.5,320.5 C 65.8333,320.5 66.1667,320.5 66.5,320.5C 66.5,321.833 66.5,323.167 66.5,324.5C 65.5655,323.432 65.2322,322.099 65.5,320.5 Z"/></g>
<g><path style="opacity:0.016" fill="#4e4e4e" d="M 468.5,321.5 C 468.833,321.5 469.167,321.5 469.5,321.5C 469.167,325.5 468.833,325.5 468.5,321.5 Z"/></g>
<g><path style="opacity:0.012" fill="#4f4f4f" d="M 66.5,324.5 C 66.8333,324.5 67.1667,324.5 67.5,324.5C 67.5,325.5 67.5,326.5 67.5,327.5C 66.596,326.791 66.2627,325.791 66.5,324.5 Z"/></g>
<g><path style="opacity:0.012" fill="#4f4f4f" d="M 467.5,325.5 C 468.833,326.5 468.833,327.5 467.5,328.5C 467.5,327.5 467.5,326.5 467.5,325.5 Z"/></g>
<g><path style="opacity:0.016" fill="#424242" d="M 466.5,328.5 C 466.833,328.5 467.167,328.5 467.5,328.5C 467.737,329.791 467.404,330.791 466.5,331.5C 466.5,330.5 466.5,329.5 466.5,328.5 Z"/></g>
<g><path style="opacity:0.016" fill="#4e4e4e" d="M 68.5,330.5 C 68.8333,330.5 69.1667,330.5 69.5,330.5C 69.5,331.5 69.5,332.5 69.5,333.5C 68.596,332.791 68.2627,331.791 68.5,330.5 Z"/></g>
<g><path style="opacity:0.016" fill="#4e4e4e" d="M 69.5,333.5 C 69.8333,333.5 70.1667,333.5 70.5,333.5C 70.5,334.5 70.5,335.5 70.5,336.5C 69.596,335.791 69.2627,334.791 69.5,333.5 Z"/></g>
<g><path style="opacity:0.012" fill="#4f4f4f" d="M 464.5,334.5 C 464.833,334.5 465.167,334.5 465.5,334.5C 465.737,335.791 465.404,336.791 464.5,337.5C 464.5,336.5 464.5,335.5 464.5,334.5 Z"/></g>
<g><path style="opacity:0.012" fill="#6a6a6a" d="M 463.5,337.5 C 463.833,337.5 464.167,337.5 464.5,337.5C 464.672,338.492 464.338,339.158 463.5,339.5C 463.5,338.833 463.5,338.167 463.5,337.5 Z"/></g>
<g><path style="opacity:0.012" fill="#696969" d="M 73.5,344.5 C 73.8333,344.5 74.1667,344.5 74.5,344.5C 74.5,345.167 74.5,345.833 74.5,346.5C 73.6618,346.158 73.3284,345.492 73.5,344.5 Z"/></g>
<g><path style="opacity:0.012" fill="#696969" d="M 459.5,347.5 C 459.833,347.5 460.167,347.5 460.5,347.5C 460.672,348.492 460.338,349.158 459.5,349.5C 459.5,348.833 459.5,348.167 459.5,347.5 Z"/></g>
<g><path style="opacity:0.008" fill="#8b8b8b" d="M 75.5,349.5 C 75.8333,349.5 76.1667,349.5 76.5,349.5C 76.5,350.167 76.5,350.833 76.5,351.5C 75.6618,351.158 75.3284,350.492 75.5,349.5 Z"/></g>
<g><path style="opacity:0.012" fill="#434343" d="M 458.5,349.5 C 458.833,349.5 459.167,349.5 459.5,349.5C 459.672,350.492 459.338,351.158 458.5,351.5C 458.5,350.833 458.5,350.167 458.5,349.5 Z"/></g>
<g><path style="opacity:0.012" fill="#767676" d="M 76.5,351.5 C 76.8333,351.5 77.1667,351.5 77.5,351.5C 77.5,352.167 77.5,352.833 77.5,353.5C 76.6618,353.158 76.3284,352.492 76.5,351.5 Z"/></g>
<g><path style="opacity:0.012" fill="#3e3e3e" d="M 393.5,355.5 C 393.5,356.167 393.5,356.833 393.5,357.5C 392.833,357.5 392.5,357.833 392.5,358.5C 392.167,358.5 391.833,358.5 391.5,358.5C 391.427,356.973 392.094,355.973 393.5,355.5 Z"/></g>
<g><path style="opacity:0.012" fill="#787878" d="M 83.5,365.5 C 83.8333,365.5 84.1667,365.5 84.5,365.5C 84.5,366.167 84.5,366.833 84.5,367.5C 83.6618,367.158 83.3284,366.492 83.5,365.5 Z"/></g>
<g><path style="opacity:0.004" fill="#2e2e2e" d="M 166.5,384.5 C 166.5,384.167 166.5,383.833 166.5,383.5C 168.027,383.427 169.027,384.094 169.5,385.5C 168.833,385.5 168.167,385.5 167.5,385.5C 167.5,384.833 167.167,384.5 166.5,384.5 Z"/></g>
<g><path style="opacity:0.016" fill="#424242" d="M 135.5,427.5 C 136.167,427.5 136.5,427.833 136.5,428.5C 135.503,429.713 134.503,429.546 133.5,428C 134.094,427.536 134.761,427.369 135.5,427.5 Z"/></g>
<g><path style="opacity:0.004" fill="#1d1d1d" d="M 389.5,436.5 C 389.5,436.167 389.5,435.833 389.5,435.5C 392.167,435.833 392.167,436.167 389.5,436.5 Z"/></g>
<g><path style="opacity:0.012" fill="#696a69" d="M 388.5,436.5 C 388.833,436.5 389.167,436.5 389.5,436.5C 389.315,437.17 388.981,437.17 388.5,436.5 Z"/></g>
<g><path style="opacity:0.008" fill="#343434" d="M 386.5,438.5 C 386.5,438.167 386.5,437.833 386.5,437.5C 387.167,437.5 387.833,437.5 388.5,437.5C 388.158,438.338 387.492,438.672 386.5,438.5 Z"/></g>
<g><path style="opacity:0.012" fill="#616261" d="M 385.5,438.5 C 385.833,438.5 386.167,438.5 386.5,438.5C 386.315,439.17 385.981,439.17 385.5,438.5 Z"/></g>
<g><path style="opacity:0.012" fill="#686968" d="M 382.5,440.5 C 382.833,440.5 383.167,440.5 383.5,440.5C 383.315,441.17 382.981,441.17 382.5,440.5 Z"/></g>
<g><path style="opacity:0.012" fill="#686968" d="M 381.5,441.5 C 381.833,441.5 382.167,441.5 382.5,441.5C 382.315,442.17 381.981,442.17 381.5,441.5 Z"/></g>
<g><path style="opacity:0.004" fill="#1c1c1c" d="M 379.5,443.5 C 379.5,443.167 379.5,442.833 379.5,442.5C 380.167,442.5 380.833,442.5 381.5,442.5C 381.158,443.338 380.492,443.672 379.5,443.5 Z"/></g>
<g><path style="opacity:0.008" fill="#6a6a6a" d="M 377.5,444.5 C 377.5,444.167 377.5,443.833 377.5,443.5C 378.167,443.5 378.833,443.5 379.5,443.5C 379.158,444.338 378.492,444.672 377.5,444.5 Z"/></g>
<g><path style="opacity:0.016" fill="#494a49" d="M 376.5,444.5 C 376.833,444.5 377.167,444.5 377.5,444.5C 377.315,445.17 376.981,445.17 376.5,444.5 Z"/></g>
<g><path style="opacity:0.008" fill="#9d9d9d" d="M 374.5,446.5 C 374.5,446.167 374.5,445.833 374.5,445.5C 375.167,445.5 375.833,445.5 376.5,445.5C 376.158,446.338 375.492,446.672 374.5,446.5 Z"/></g>
<g><path style="opacity:0.012" fill="#666766" d="M 373.5,446.5 C 373.833,446.5 374.167,446.5 374.5,446.5C 374.315,447.17 373.981,447.17 373.5,446.5 Z"/></g>
<g><path style="opacity:0.004" fill="#242424" d="M 371.5,448.5 C 371.5,448.167 371.5,447.833 371.5,447.5C 372.167,447.5 372.833,447.5 373.5,447.5C 373.158,448.338 372.492,448.672 371.5,448.5 Z"/></g>
<g><path style="opacity:0.008" fill="#8a8a8a" d="M 369.5,449.5 C 369.5,449.167 369.5,448.833 369.5,448.5C 370.167,448.5 370.833,448.5 371.5,448.5C 371.158,449.338 370.492,449.672 369.5,449.5 Z"/></g>
<g><path style="opacity:0.008" fill="#696969" d="M 367.5,450.5 C 367.5,450.167 367.5,449.833 367.5,449.5C 368.167,449.5 368.833,449.5 369.5,449.5C 369.158,450.338 368.492,450.672 367.5,450.5 Z"/></g>
<g><path style="opacity:0.012" fill="#6c6d6c" d="M 366.5,450.5 C 366.833,450.5 367.167,450.5 367.5,450.5C 367.315,451.17 366.981,451.17 366.5,450.5 Z"/></g>
<g><path style="opacity:0.004" fill="#262626" d="M 364.5,452.5 C 364.5,452.167 364.5,451.833 364.5,451.5C 365.167,451.5 365.833,451.5 366.5,451.5C 366.158,452.338 365.492,452.672 364.5,452.5 Z"/></g>
<g><path style="opacity:0.004" fill="#262626" d="M 362.5,453.5 C 362.5,453.167 362.5,452.833 362.5,452.5C 363.167,452.5 363.833,452.5 364.5,452.5C 364.158,453.338 363.492,453.672 362.5,453.5 Z"/></g>
<g><path style="opacity:0.004" fill="#262626" d="M 360.5,454.5 C 360.5,454.167 360.5,453.833 360.5,453.5C 361.167,453.5 361.833,453.5 362.5,453.5C 362.158,454.338 361.492,454.672 360.5,454.5 Z"/></g>
<g><path style="opacity:0.004" fill="#1d1d1d" d="M 358.5,455.5 C 358.5,455.167 358.5,454.833 358.5,454.5C 359.167,454.5 359.833,454.5 360.5,454.5C 360.158,455.338 359.492,455.672 358.5,455.5 Z"/></g>
<g><path style="opacity:0.004" fill="#262626" d="M 356.5,456.5 C 356.5,456.167 356.5,455.833 356.5,455.5C 357.167,455.5 357.833,455.5 358.5,455.5C 358.158,456.338 357.492,456.672 356.5,456.5 Z"/></g>
<g><path style="opacity:0.004" fill="#1d1d1d" d="M 354.5,457.5 C 354.5,457.167 354.5,456.833 354.5,456.5C 355.167,456.5 355.833,456.5 356.5,456.5C 356.158,457.338 355.492,457.672 354.5,457.5 Z"/></g>
<g><path style="opacity:0.004" fill="#262626" d="M 352.5,458.5 C 352.5,458.167 352.5,457.833 352.5,457.5C 353.167,457.5 353.833,457.5 354.5,457.5C 354.158,458.338 353.492,458.672 352.5,458.5 Z"/></g>
<g><path style="opacity:0.012" fill="#5a5a5a" d="M 349.5,459.5 C 349.5,459.167 349.5,458.833 349.5,458.5C 350.5,458.5 351.5,458.5 352.5,458.5C 351.791,459.404 350.791,459.737 349.5,459.5 Z"/></g>
<g><path style="opacity:0.008" fill="#8b8b8b" d="M 347.5,460.5 C 347.5,460.167 347.5,459.833 347.5,459.5C 348.167,459.5 348.833,459.5 349.5,459.5C 349.158,460.338 348.492,460.672 347.5,460.5 Z"/></g>
<g><path style="opacity:0.004" fill="#262626" d="M 345.5,460.5 C 346.167,460.5 346.833,460.5 347.5,460.5C 346.833,461.833 346.167,461.833 345.5,460.5 Z"/></g>
<g><path style="opacity:0.012" fill="#4f4f4f" d="M 334.5,465.5 C 334.5,465.167 334.5,464.833 334.5,464.5C 338.5,464.833 338.5,465.167 334.5,465.5 Z"/></g>
<g><path style="opacity:0.012" fill="#4f4f4f" d="M 331.5,465.5 C 332.5,465.5 333.5,465.5 334.5,465.5C 333.5,466.833 332.5,466.833 331.5,465.5 Z"/></g>
<g><path style="opacity:0.012" fill="#4f4f4f" d="M 206.5,466.5 C 206.5,466.833 206.5,467.167 206.5,467.5C 202.5,467.167 202.5,466.833 206.5,466.5 Z"/></g>
<g><path style="opacity:0.012" fill="#494949" d="M 206.5,467.5 C 207.552,467.351 208.552,467.517 209.5,468C 208.251,468.74 207.251,468.573 206.5,467.5 Z"/></g>
<g><path style="opacity:0.016" fill="#525252" d="M 317.5,470.5 C 317.5,470.167 317.5,469.833 317.5,469.5C 322.833,469.833 322.833,470.167 317.5,470.5 Z"/></g>
<g><path style="opacity:0.016" fill="#363636" d="M 313.5,471.5 C 313.5,471.167 313.5,470.833 313.5,470.5C 314.833,470.5 316.167,470.5 317.5,470.5C 316.432,471.434 315.099,471.768 313.5,471.5 Z"/></g>
<g><path style="opacity:0.016" fill="#444444" d="M 309.5,472.5 C 309.5,472.167 309.5,471.833 309.5,471.5C 310.833,471.5 312.167,471.5 313.5,471.5C 312.432,472.434 311.099,472.768 309.5,472.5 Z"/></g>
<g><path style="opacity:0.012" fill="#3c3c3c" d="M 303.5,473.5 C 303.5,473.167 303.5,472.833 303.5,472.5C 305.5,472.5 307.5,472.5 309.5,472.5C 307.735,473.461 305.735,473.795 303.5,473.5 Z"/></g>
<g><path style="opacity:0.008" fill="#565656" d="M 237.5,473.5 C 237.5,473.833 237.5,474.167 237.5,474.5C 229.5,474.167 229.5,473.833 237.5,473.5 Z"/></g>
<g><path style="opacity:0.012" fill="#4f4f4f" d="M 297.5,474.5 C 297.5,474.167 297.5,473.833 297.5,473.5C 299.5,473.5 301.5,473.5 303.5,473.5C 301.735,474.461 299.735,474.795 297.5,474.5 Z"/></g>
<g><path style="opacity:0.012" fill="#626262" d="M 237.5,474.5 C 240.059,474.198 242.393,474.532 244.5,475.5C 241.941,475.802 239.607,475.468 237.5,474.5 Z"/></g>
<g><path style="opacity:0.012" fill="#5e5e5e" d="M 290.5,475.5 C 292.607,474.532 294.941,474.198 297.5,474.5C 295.393,475.468 293.059,475.802 290.5,475.5 Z"/></g>
<g><path style="opacity:0.012" fill="#575757" d="M 244.5,475.5 C 248.846,475.334 253.179,475.501 257.5,476C 252.98,476.814 248.646,476.647 244.5,475.5 Z"/></g>
<g><path style="opacity:0.016" fill="#515151" d="M 290.5,475.5 C 286.354,476.647 282.02,476.814 277.5,476C 281.821,475.501 286.154,475.334 290.5,475.5 Z"/></g>
<g><path style="opacity:0.004" fill="#252525" d="M 258.5,477.5 C 264.319,476.347 270.319,476.181 276.5,477C 270.509,477.499 264.509,477.666 258.5,477.5 Z"/></g>
<g><path style="opacity:0.016" fill="#797979" d="M 659.5,623.5 C 659.351,622.448 659.517,621.448 660,620.5C 660.74,621.749 660.573,622.749 659.5,623.5 Z"/></g>
<g><path style="opacity:0.012" fill="#636363" d="M 660.5,634.5 C 660.335,631.15 660.502,627.817 661,624.5C 661.808,628.027 661.641,631.36 660.5,634.5 Z"/></g>
<g><path style="opacity:0.012" fill="#656665" d="M 652.5,648.5 C 652.833,648.5 653.167,648.5 653.5,648.5C 653.315,649.17 652.981,649.17 652.5,648.5 Z"/></g>
<g><path style="opacity:0.016" fill="#484948" d="M 651.5,649.5 C 651.833,649.5 652.167,649.5 652.5,649.5C 652.315,650.17 651.981,650.17 651.5,649.5 Z"/></g>
<g><path style="opacity:0.016" fill="#494a49" d="M 650.5,650.5 C 650.833,650.5 651.167,650.5 651.5,650.5C 651.315,651.17 650.981,651.17 650.5,650.5 Z"/></g>
<g><path style="opacity:0.016" fill="#494a49" d="M 649.5,651.5 C 649.833,651.5 650.167,651.5 650.5,651.5C 650.315,652.17 649.981,652.17 649.5,651.5 Z"/></g>
<g><path style="opacity:0.016" fill="#474847" d="M 648.5,652.5 C 648.833,652.5 649.167,652.5 649.5,652.5C 649.315,653.17 648.981,653.17 648.5,652.5 Z"/></g>
<g><path style="opacity:0.008" fill="#a0a1a0" d="M 647.5,653.5 C 647.833,653.5 648.167,653.5 648.5,653.5C 648.315,654.17 647.981,654.17 647.5,653.5 Z"/></g>
<g><path style="opacity:0.004" fill="#343434" d="M 645.5,655.5 C 645.5,655.167 645.5,654.833 645.5,654.5C 646.167,654.5 646.833,654.5 647.5,654.5C 647.158,655.338 646.492,655.672 645.5,655.5 Z"/></g>
<g><path style="opacity:0.012" fill="#666766" d="M 644.5,655.5 C 644.833,655.5 645.167,655.5 645.5,655.5C 645.315,656.17 644.981,656.17 644.5,655.5 Z"/></g>
<g><path style="opacity:0.008" fill="#9c9c9c" d="M 616.5,656.5 C 616.5,656.833 616.5,657.167 616.5,657.5C 613.833,657.167 613.833,656.833 616.5,656.5 Z"/></g>
<g><path style="opacity:0.004" fill="#242424" d="M 642.5,657.5 C 642.5,657.167 642.5,656.833 642.5,656.5C 643.167,656.5 643.833,656.5 644.5,656.5C 644.158,657.338 643.492,657.672 642.5,657.5 Z"/></g>
<g><path style="opacity:0.012" fill="#696a69" d="M 616.5,657.5 C 617.833,658.167 617.833,658.167 616.5,657.5 Z"/></g>
<g><path style="opacity:0.008" fill="#9c9c9c" d="M 640.5,658.5 C 640.5,658.167 640.5,657.833 640.5,657.5C 641.167,657.5 641.833,657.5 642.5,657.5C 642.158,658.338 641.492,658.672 640.5,658.5 Z"/></g>
<g><path style="opacity:0.012" fill="#696969" d="M 620.5,658.5 C 620.5,658.833 620.5,659.167 620.5,659.5C 617.833,659.167 617.833,658.833 620.5,658.5 Z"/></g>
<g><path style="opacity:0.008" fill="#8b8b8b" d="M 638.5,659.5 C 638.5,659.167 638.5,658.833 638.5,658.5C 639.167,658.5 639.833,658.5 640.5,658.5C 640.158,659.338 639.492,659.672 638.5,659.5 Z"/></g>
<g><path style="opacity:0.012" fill="#505050" d="M 620.5,659.5 C 621.552,659.351 622.552,659.517 623.5,660C 622.251,660.74 621.251,660.573 620.5,659.5 Z"/></g>
<g><path style="opacity:0.016" fill="#525252" d="M 634.5,660.5 C 634.5,660.167 634.5,659.833 634.5,659.5C 635.833,659.5 637.167,659.5 638.5,659.5C 637.432,660.434 636.099,660.768 634.5,660.5 Z"/></g>
<g><path style="opacity:0.012" fill="#5e5e5e" d="M 634.5,660.5 C 631.36,661.641 628.027,661.808 624.5,661C 627.817,660.502 631.15,660.335 634.5,660.5 Z"/></g>
</svg>
