<?xml version="1.0" encoding="UTF-8"?>
<!DOCTYPE svg PUBLIC "-//W3C//DTD SVG 1.1//EN" "http://www.w3.org/Graphics/SVG/1.1/DTD/svg11.dtd">
<svg xmlns="http://www.w3.org/2000/svg" version="1.1" width="757px" height="768px" style="shape-rendering:geometricPrecision; text-rendering:geometricPrecision; image-rendering:optimizeQuality; fill-rule:evenodd; clip-rule:evenodd" xmlns:xlink="http://www.w3.org/1999/xlink">
<g><path style="opacity:0.994" fill="#038f2d" d="M 573.5,165.5 C 573.877,167.258 574.544,168.925 575.5,170.5C 575.167,170.833 574.833,171.167 574.5,171.5C 560.73,167.21 546.73,166.376 532.5,169C 504.93,175.393 477.597,182.726 450.5,191C 424.024,198.269 397.357,199.269 370.5,194C 362.994,191.406 355.661,188.572 348.5,185.5C 347.708,236.468 322.042,265.968 271.5,274C 261.234,275.991 250.9,276.991 240.5,277C 247.903,262.794 253.736,247.961 258,232.5C 260.632,218.907 257.465,206.907 248.5,196.5C 239.242,206.263 229.242,215.096 218.5,223C 196.704,236.364 173.038,241.698 147.5,239C 131.198,237.772 115.198,234.939 99.5,230.5C 88.5651,228.433 77.8984,225.433 67.5,221.5C 72.9603,218.936 78.2936,216.103 83.5,213C 106.115,197.077 129.782,182.744 154.5,170C 167.594,164.143 181.26,160.31 195.5,158.5C 183.277,153.821 170.61,150.988 157.5,150C 140.789,149.12 124.123,149.62 107.5,151.5C 106.167,151.167 104.833,150.833 103.5,150.5C 142.645,97.2863 193.645,81.1197 256.5,102C 241.924,83.5136 227.591,64.8469 213.5,46C 230,36.1667 246.5,26.3333 263,16.5C 275.52,44.3827 287.853,72.3827 300,100.5C 310.785,82.0479 325.285,67.2146 343.5,56C 371.919,41.272 398.586,43.9387 423.5,64C 428.134,67.6321 432.467,71.6321 436.5,76C 425.114,79.2759 414.947,84.7759 406,92.5C 398.847,100.812 395.014,110.479 394.5,121.5C 447.265,109.252 497.599,115.752 545.5,141C 556.672,147.083 566.006,155.25 573.5,165.5 Z"/></g>
<g><path style="opacity:0.999" fill="#f83208" d="M 573.5,165.5 C 684.689,228.521 735.522,324.187 726,452.5C 721.234,500.791 707.234,546.124 684,588.5C 644.635,644.854 593.468,687.021 530.5,715C 446.216,752.511 359.216,760.511 269.5,739C 185.594,715.491 118.094,668.658 67,598.5C 25.9736,529.727 11.3069,455.727 23,376.5C 34.5996,320.291 60.0996,271.625 99.5,230.5C 115.198,234.939 131.198,237.772 147.5,239C 173.038,241.698 196.704,236.364 218.5,223C 229.242,215.096 239.242,206.263 248.5,196.5C 257.465,206.907 260.632,218.907 258,232.5C 253.736,247.961 247.903,262.794 240.5,277C 250.9,276.991 261.234,275.991 271.5,274C 322.042,265.968 347.708,236.468 348.5,185.5C 355.661,188.572 362.994,191.406 370.5,194C 397.357,199.269 424.024,198.269 450.5,191C 477.597,182.726 504.93,175.393 532.5,169C 546.73,166.376 560.73,167.21 574.5,171.5C 574.833,171.167 575.167,170.833 575.5,170.5C 574.544,168.925 573.877,167.258 573.5,165.5 Z"/></g>
</svg>
