<?xml version="1.0" encoding="UTF-8"?>
<!DOCTYPE svg PUBLIC "-//W3C//DTD SVG 1.1//EN" "http://www.w3.org/Graphics/SVG/1.1/DTD/svg11.dtd">
<svg xmlns="http://www.w3.org/2000/svg" version="1.1" width="512px" height="512px" style="shape-rendering:geometricPrecision; text-rendering:geometricPrecision; image-rendering:optimizeQuality; fill-rule:evenodd; clip-rule:evenodd" xmlns:xlink="http://www.w3.org/1999/xlink">
<g><path style="opacity:0.99" fill="#fefffe" d="M 431.5,35.5 C 454.098,33.9526 468.598,43.9526 475,65.5C 475.942,72.9816 475.275,80.3149 473,87.5C 433.667,209.5 394.333,331.5 355,453.5C 343.278,475.409 325.778,481.909 302.5,473C 296.333,469.5 291.5,464.667 288,458.5C 262.634,415.296 237.467,371.963 212.5,328.5C 250.153,290.347 287.986,252.347 326,214.5C 334.588,199.871 331.421,188.704 316.5,181C 309.169,179.402 302.502,180.735 296.5,185C 258.653,223.014 220.653,260.847 182.5,298.5C 137.002,272.252 91.6692,245.752 46.5,219C 28.4479,198.402 29.4479,178.735 49.5,160C 52.1667,158.667 54.8333,157.333 57.5,156C 182.249,115.693 306.916,75.5267 431.5,35.5 Z"/></g>
</svg>
