<?xml version="1.0" encoding="UTF-8"?>
<!DOCTYPE svg PUBLIC "-//W3C//DTD SVG 1.1//EN" "http://www.w3.org/Graphics/SVG/1.1/DTD/svg11.dtd">
<svg xmlns="http://www.w3.org/2000/svg" version="1.1" width="512px" height="512px" style="shape-rendering:geometricPrecision; text-rendering:geometricPrecision; image-rendering:optimizeQuality; fill-rule:evenodd; clip-rule:evenodd" xmlns:xlink="http://www.w3.org/1999/xlink">
<g><path style="opacity:0.96" fill="#fefffe" d="M 65.5,38.5 C 129.834,38.3333 194.168,38.5 258.5,39C 282.938,60.7683 306.771,83.2683 330,106.5C 330.167,153.17 330.667,199.837 331.5,246.5C 343.371,239.467 355.371,232.633 367.5,226C 373.484,225.075 377.984,227.242 381,232.5C 381.667,310.5 381.667,388.5 381,466.5C 377.25,472.394 372.083,474.228 365.5,472C 329.329,451.08 292.996,430.414 256.5,410C 242.5,409.667 228.5,409.333 214.5,409C 198.216,405.05 188.383,394.883 185,378.5C 184.5,359.836 184.333,341.17 184.5,322.5C 161.498,322.667 138.498,322.5 115.5,322C 107.721,320.291 104.555,315.458 106,307.5C 107.27,303.23 110.104,300.73 114.5,300C 142.167,299.667 169.833,299.333 197.5,299C 202.275,295.279 207.609,292.612 213.5,291C 227.833,290.667 242.167,290.333 256.5,290C 273.5,280.333 290.5,270.667 307.5,261C 308.497,215.239 308.83,169.405 308.5,123.5C 288.075,123.976 267.741,123.476 247.5,122C 245.951,120.786 244.785,119.286 244,117.5C 243.5,98.5029 243.333,79.5029 243.5,60.5C 185.832,60.3333 128.166,60.5 70.5,61C 65.4268,62.4056 61.9268,65.5723 60,70.5C 59.3333,170.5 59.3333,270.5 60,370.5C 61.0095,374.843 63.5095,378.01 67.5,380C 95.1667,380.333 122.833,380.667 150.5,381C 156.805,381.935 159.805,385.601 159.5,392C 160.247,398.178 157.581,401.845 151.5,403C 123.833,403.667 96.1667,403.667 68.5,403C 52.3133,400.479 42.1466,391.312 38,375.5C 37.3333,272.5 37.3333,169.5 38,66.5C 41.3475,51.32 50.5142,41.9867 65.5,38.5 Z M 265.5,75.5 C 273.995,83.828 282.662,91.9947 291.5,100C 282.84,100.5 274.173,100.666 265.5,100.5C 265.5,92.1667 265.5,83.8333 265.5,75.5 Z M 358.5,256.5 C 359.832,318.001 359.832,379.668 358.5,441.5C 327.329,423.414 295.996,405.58 264.5,388C 249.5,387.667 234.5,387.333 219.5,387C 212.318,384.819 208.485,379.985 208,372.5C 207.088,355.128 207.421,337.794 209,320.5C 211.007,316.407 214.173,313.573 218.5,312C 233.833,311.667 249.167,311.333 264.5,311C 296.06,293.059 327.393,274.892 358.5,256.5 Z"/></g>
<g><path style="opacity:0.96" fill="#fefffe" d="M 111.5,176.5 C 159.501,176.333 207.501,176.5 255.5,177C 261.245,181.246 262.745,186.746 260,193.5C 258.363,195.81 256.196,197.31 253.5,198C 206.833,198.667 160.167,198.667 113.5,198C 105.27,193.834 103.437,187.668 108,179.5C 109.145,178.364 110.312,177.364 111.5,176.5 Z"/></g>
<g><path style="opacity:0.923" fill="#fefffe" d="M 115.5,237.5 C 160.835,237.333 206.168,237.5 251.5,238C 257.957,238.791 261.29,242.458 261.5,249C 261.268,254.472 258.602,258.138 253.5,260C 207.167,260.667 160.833,260.667 114.5,260C 105.445,256.37 103.278,250.204 108,241.5C 110.255,239.501 112.755,238.168 115.5,237.5 Z"/></g>
<g><path style="opacity:0.943" fill="#fefffe" d="M 452.5,298.5 C 457.969,297.71 462.469,299.377 466,303.5C 473.045,325.295 475.378,347.628 473,370.5C 472.283,380.147 470.283,389.48 467,398.5C 456.595,405.196 449.762,402.53 446.5,390.5C 452.053,363.595 451.72,336.762 445.5,310C 445.955,304.908 448.288,301.074 452.5,298.5 Z"/></g>
<g><path style="opacity:0.939" fill="#fefffe" d="M 415.5,305.5 C 420.907,305.125 425.073,307.125 428,311.5C 434.797,336.764 435.13,362.097 429,387.5C 425.565,392.794 420.732,394.627 414.5,393C 410.006,390.516 407.672,386.683 407.5,381.5C 409.282,371.744 410.282,361.911 410.5,352C 409.596,338.764 408.429,325.597 407,312.5C 408.866,308.784 411.699,306.45 415.5,305.5 Z"/></g>
</svg>
